<svg xmlns="http://www.w3.org/2000/svg" version="1.1" xmlns:xlink="http://www.w3.org/1999/xlink" width="1000" height="1000"><style>
    #light-icon {
      display: inline;
    }
    #dark-icon {
      display: none;
    }

    @media (prefers-color-scheme: dark) {
      #light-icon {
        display: none;
      }
      #dark-icon {
        display: inline;
      }
    }
  </style><g id="light-icon"><svg xmlns="http://www.w3.org/2000/svg" version="1.1" xmlns:xlink="http://www.w3.org/1999/xlink" width="1000" height="1000"><g clip-path="url(#SvgjsClipPath1281)"><rect width="1000" height="1000" fill="#000000"></rect><g transform="matrix(3.0804589699037614,0,0,3.0804589699037614,48.630605068371665,0)"><svg xmlns="http://www.w3.org/2000/svg" version="1.1" xmlns:xlink="http://www.w3.org/1999/xlink" width="293.05334" height="324.62695"><svg viewBox="0 0 293.05334 324.62695" version="1.1" id="svg2" sodipodi:docname="cipherswarm.svg" width="293.05334" height="324.62695" inkscape:version="1.4.2 (ebf0e940, 2025-05-08)" xmlns:inkscape="http://www.inkscape.org/namespaces/inkscape" xmlns:sodipodi="http://sodipodi.sourceforge.net/DTD/sodipodi-0.dtd" xmlns="http://www.w3.org/2000/svg" xmlns:svg="http://www.w3.org/2000/svg" xmlns:rdf="http://www.w3.org/1999/02/22-rdf-syntax-ns#" xmlns:cc="http://creativecommons.org/ns#">
  <defs id="defs2"><clipPath id="SvgjsClipPath1281"><rect width="1000" height="1000" x="0" y="0" rx="350" ry="350"></rect></clipPath></defs>
  <sodipodi:namedview id="namedview2" pagecolor="#181926" bordercolor="#000000" borderopacity="0.25" inkscape:showpageshadow="2" inkscape:pageopacity="0.0" inkscape:pagecheckerboard="true" inkscape:deskcolor="#d1d1d1" inkscape:zoom="2.08" inkscape:cx="146.39423" inkscape:cy="162.25962" inkscape:window-width="2560" inkscape:window-height="1308" inkscape:window-x="1282" inkscape:window-y="27" inkscape:window-maximized="0" inkscape:current-layer="svg2" inkscape:clip-to-page="false">
    <sodipodi:guide position="-2.4504035e-15,324.62695" orientation="0,293.05334" id="guide2" inkscape:locked="false"></sodipodi:guide>
    <sodipodi:guide position="293.05334,324.62695" orientation="324.62695,0" id="guide3" inkscape:locked="false"></sodipodi:guide>
    <sodipodi:guide position="293.05334,-1.7170691e-09" orientation="0,-293.05334" id="guide4" inkscape:locked="false"></sodipodi:guide>
    <sodipodi:guide position="-2.4504035e-15,-1.7170691e-09" orientation="-324.62695,0" id="guide5" inkscape:locked="false"></sodipodi:guide>
  </sodipodi:namedview>
  <path id="Foreground" style="display:inline;fill:#f5f5f5;fill-rule:evenodd" d="m 146.5293,0.00340382 c -0.63862,0.04324 -1.56836,0.503125 -3.63086,1.67187498 a 190,190 0 0 0 -8,4.800781 A 851.6,851.6 0 0 0 108,22.376451 l -1.30078,1 V 68.37645 l 3.09961,2 a 150,150 0 0 0 8.09961,4.79883 2108.6,2108.6 0 0 0 24.10156,14 l 2.29883,1.40039 v 13.80078 L 143,104.97606 l -3.30078,1.90039 -6.40039,3.59961 -9.40039,5.40039 -10.79883,6.19922 a 5610.3,5610.3 0 0 0 -17.400391,9.70117 c -0.4,0 -6.8,-3.60078 -13,-7.30078 l -2.40039,-1.40039 v -20 c 0,-18.6 7.8e-4,-20.09922 -0.69922,-20.69922 A 526.9,526.9 0 0 1 55.898439,68.67528 c -5,-3 -14.199611,-8.200001 -15.099611,-8.500001 -1,-0.2 -2.6,0.6 -10,5.000001 a 416.9,416.9 0 0 1 -13.90039,8.10156 745,745 0 0 1 -15.99999995,9.29883 c -0.5,0.3 -0.59961,4.70117 -0.59961,22.70117 0,26 -0.7,22.6 5.49999995,26 l 7.300782,4.09961 A 4892.3,4892.3 0 0 0 38.5,150.07567 c 0.7,0.5 1.698438,0 8.398439,-4 a 631.5,631.5 0 0 1 15.60156,-9.09961 l 8.19922,-4.90039 c 9.1,-5.4 6.99922,-5.39922 16.69922,0.30078 l 5.70117,3.29883 v 53.60156 l -2.09961,1.39844 a 140.2,140.2 0 0 1 -10.30078,6 l -1.5,0.80078 -9.69922,-5.59961 -23.201171,-13.20117 a 40.9,40.9 0 0 0 -6.699218,-3.39844 c -0.8,0 -4.800782,2.19844 -17.300782,9.39844 L 11.5,190.87645 c -7,4 -11.00078095,6.4 -11.30078095,7 C -7.809531e-4,198.07645 4.6902476e-8,208.37567 4.6902476e-8,220.57567 L 0.09961005,242.97606 l 7.59960895,4.40039 15.599609,9.09961 a 164,164 0 0 0 16.400391,9.19922 41,41 0 0 0 5.699219,-3 733.3,733.3 0 0 1 18.701171,-11 160.2,160.2 0 0 1 8.40039,-5 l 4.5,-2.59961 c 3.6,-2 3.29883,0.1 3.29883,-22.5 v -19.69922 l 6.90039,-4 c 6.2,-3.6 6.89922,-3.90039 7.69922,-3.40039 a 254.7,254.7 0 0 0 12.000001,6.80078 l 1.80078,1.09961 6.40039,3.69922 a 2595.3,2595.3 0 0 0 28.29883,16 c 0.9,0.5 1.00078,0.70117 0.80078,6.20117 l -0.0996,5.59961 -5.4004,3.19922 a 1387,1387 0 0 1 -29.09961,17.30078 l -2.90039,1.79883 0.0996,22.80078 0.0996,22.80078 5,3 c 7,4 23.7,13.69922 29.5,17.19922 5.8,3.4 5.00078,3.3 8.80078,1 l 3.90039,-2.30078 8.19922,-4.79883 a 1162.4,1162.4 0 0 1 23.5,-14 c 0.7,-0.7 0.90117,-45 0.20117,-46 l -3.20117,-2 a 346,346 0 0 1 -17,-10 2360.1,2360.1 0 0 1 -15.79883,-9.30078 l -1.30076,-0.59961 v -11.5 l 1.90039,-1 4.90039,-3 11.19922,-6.5 11.59961,-6.80078 c 16.7,-9.9 19.79961,-11.5 20.59961,-11 l 6,3.5 6.40039,3.70117 1.40039,0.90039 v 19.79883 c 0,18.4 -7.8e-4,20 0.69922,20.5 l 4.70117,3 16,9.09961 L 249,263.37645 c 4.4,2.7 3.6,2.70039 7.5,0.40039 a 3454.4,3454.4 0 0 1 29.79883,-17.20117 28,28 0 0 0 3.80078,-2.29883 c 0.7,-0.5 1.5,-1.00156 2,-1.10156 0.6,-0.3 0.6,-1.59883 0.5,-22.79883 l -0.0996,-22.5 -1.70117,-1 a 83,83 0 0 0 -7.19922,-4.30078 l -11.9004,-6.90039 -16.09961,-9.29883 -2.09961,-1.20117 -11.5,6.70117 a 12768,12768 0 0 0 -24.30078,14.09961 l -3.5,2 -1.90039,-1 c -1,-0.4 -4.19922,-2.3 -7.19922,-4 l -5.40039,-3.09961 -0.0996,-27.20117 -0.0996,-27.19922 5.09961,-3 c 10.2,-6.2 8.20039,-6 16.90039,-1 l 11.19922,6.40039 15,8.5 6.5,3.69922 a 517.2,517.2 0 0 0 19.30078,-11 L 291,128.77684 c 2.3,-1.5 2.1,-7.8e-4 2,-24.30078 l -0.10156,-21.40039 -2,-1.29883 -6,-3.60156 -8,-4.59961 c -4.5,-2.7 -5.39883,-3.29883 -10.79883,-6.29883 l -8,-4.70117 c -5.6,-3.300001 -5.30117,-3.299219 -8.70117,-1.199219 A 2252.6,2252.6 0 0 1 213.59961,82.07567 l -0.90039,0.59961 v 40.20117 l -2,1 -3.59961,2 a 84.2,84.2 0 0 1 -9.59961,5.40039 78,78 0 0 1 -7.30078,-3.90039 1118.8,1118.8 0 0 0 -22.30078,-12.40039 l -17.69922,-9.90039 -1.5,-0.79883 V 90.67528 L 149.79883,89.97606 153.5,87.77684 A 1466,1466 0 0 1 183.69922,70.37645 L 186.5,68.67528 186.5996,45.97606 c 0,-17.8 -3.9e-4,-22.799609 -0.40039,-23.099609 l -4.5,-2.800782 -11.19922,-6.5 c -11.2,-6.5000002 -22.30117,-13.00039018 -23.20117,-13.40039018 -0.25,-0.125 -0.47925,-0.191529 -0.76953,-0.171875 z m 0.0703,4.47265598 4.59961,2.699219 A 1304.7,1304.7 0 0 0 177.89844,22.97606 l 4.20117,2.599609 0.0996,20.400391 0.0996,20.40039 -1,0.59961 -4,2.19922 -11.79883,6.70117 -13.70117,7.79883 c -4.5,2.7 -5.7,3.20039 -6.5,2.40039 l -9.19921,-5.40039 -12.40039,-7.19922 -8.30078,-4.80078 -4.69922,-2.69922 V 25.675279 l 8.09961,-4.699219 A 15109.9,15109.9 0 0 1 142.89844,6.6752788 Z m 106,60.0000002 2.79883,1.5 a 6318,6318 0 0 1 32.40039,18.69922 l 0.90039,0.40039 v 20.30078 c 0,17.8 3.9e-4,20.20039 -0.59961,20.40039 l -8.30078,4.79883 a 918.1,918.1 0 0 1 -25.19922,14.5 c -0.4,0.2 -1.40078,-0.19883 -2.30078,-0.79883 l -10.29883,-6 -16.80078,-9.60156 -8,-4.79883 V 84.97606 l 6,-3.5 10,-5.69922 z M 40.277344,65.11083 c 0.602512,0.0251 1.105469,0.39609 2.121094,0.96484 v -0.09961 a 1153,1153 0 0 1 30.800781,17.90039 l 2.69922,1.5 v 19 c 0,17.8 7.8e-4,19.19883 -0.69922,19.79883 -0.7,0.6 -9.09922,5.7 -13.19922,8 a 3068,3068 0 0 0 -21.601561,12.5 l -1.298828,0.60156 -5.800782,-3.40039 a 126,126 0 0 0 -8,-4.59961 758.6,758.6 0 0 0 -19.90039,-11.30078 c -0.8,-0.3 -1.098828,-41.09961 -0.298828,-41.09961 0.3,0 2.7,-1.3 5.5,-3 l 11,-6.20117 a 158.1,158.1 0 0 0 8.798828,-5.19922 l 4.701172,-2.80078 c 3.20625,-1.9 4.29714,-2.60122 5.177734,-2.56445 z m 105.927736,43.08984 c 0.45587,-0.0165 0.9668,0.33242 2.29492,1.07617 h -0.10156 a 520.2,520.2 0 0 0 8.30078,4.5 5058,5058 0 0 0 31,17.19922 l 7.80078,4.40039 v 54.90039 l -7.5,4.39844 a 2578.4,2578.4 0 0 0 -35.5,20.70117 l -3.5,2 -2.70117,1.59961 -4.5,-2.59961 a 1409.3,1409.3 0 0 1 -22.5,-12.90039 l -8,-4.59961 c -9,-5.1 -13.399611,-7.7 -13.599611,-8 -0.4,-0.6 -0.4,-54.20117 0,-54.70117 0.1,-0.3 1.20078,-0.99961 2.30078,-1.59961 a 654.5,654.5 0 0 0 16.298831,-9.29883 l 7.80078,-4.5 12.40039,-7 a 189.3,189.3 0 0 1 8.09961,-4.70117 c 0.84375,-0.5625 1.20323,-0.86044 1.60547,-0.875 z m 0.86133,20.27734 a 16.6,16.6 0 0 0 -4.36719,0.49805 c -9,2 -13.29922,8.99922 -13.19922,21.69922 v 6 l -3,1.20117 a 33,33 0 0 0 -4,1.69922 l -1,0.5 v 14.5 c 0,8 0.19883,14.7 0.29883,15 0.1,0.3 5.40117,3.20117 11.70117,6.70117 l 12.19922,6.79883 c 0.7,0.5 1.49961,0.10117 6.59961,-2.79883 a 157.6,157.6 0 0 1 9,-5.10156 121,121 0 0 1 9.30078,-5.19922 c 0.4,-0.3 0.5,-3.79961 0.5,-15.09961 0,-16.6 0.19922,-15.49961 -3.30078,-16.59961 l -3.19922,-1.30078 -1,-0.5 v -6.19922 c 0,-7.2 -0.50117,-9.5 -2.20117,-13 a 16.6,16.6 0 0 0 -14.33203,-8.79883 z m -0.24805,5.18555 c 1.25625,0.0125 2.53125,0.21328 3.78125,0.61328 h 0.0996 c 5.8,2 7.7,5.59844 8,14.89844 v 6.90039 h -24 v -6.29883 c 0,-7.1 0.4,-8.7 2.5,-11.5 2.25,-3 5.85039,-4.65078 9.61914,-4.61328 z m -13.71875,27.01172 13.90039,0.10156 14,0.0996 2.69922,1.09962 2.80078,1.19922 0.0996,11.60156 0.0996,11.69922 -1.5,1 a 328,328 0 0 1 -17.90039,10 c -0.7,0.5 -14,-6.40078 -20,-10.30078 l -1,-0.69922 v -11.59961 c 0,-10.8 10e-4,-11.70039 0.70117,-11.90039 0.4,0 1.99844,-0.59922 3.39844,-1.19922 z m 12.93164,7.43359 c -0.5043,0.0365 -1.01875,0.15469 -1.53125,0.36719 -2.6,1 -3.50039,3.8 -1.90039,6 l 1.19922,1.59961 -0.69922,3.5 c -0.4,2 -0.7,3.80117 -0.5,4.20117 0.4,1.6 5.3,2.09922 7,0.69922 l 0.90039,-0.69922 -0.80078,-3 c -1,-4.2 -0.99922,-5.30156 0.30078,-6.60156 2.5375,-2.625 -0.43867,-6.32207 -3.96875,-6.06641 z m 107.4375,11.99805 c 0.55877,0.003 1.26172,0.48867 3.23047,1.66992 v 0.0996 a 641.5,641.5 0 0 0 12,7 l 11,6.19922 9,5.20117 0.19922,9.19922 c 0.1,5 0.20156,14.09922 0.10156,20.19922 v 11 l -2.30078,1.30079 -2.80078,1.59961 -4.39844,2.5 a 749,749 0 0 1 -25.60156,14.80078 c -0.3,0.2 -2.89883,-1.00117 -5.79883,-2.70117 l -11.20117,-6.5 a 2104.2,2104.2 0 0 0 -16.69922,-9.79883 l -2.90039,-1.70117 v -19.69922 l -0.19922,-19.5 3,-1.59961 a 520,520 0 0 0 15,-8.80078 l 16.79883,-9.69922 c 0.7875,-0.48125 1.13572,-0.77158 1.57031,-0.76953 z m -214.267578,0.10742 c 1.14979,0.0166 3.366016,1.29219 10.697267,5.46094 v 0.10156 a 7083,7083 0 0 0 25,14.39844 l 1,0.80078 v 38.90039 l -2.89844,1.59961 -8.5,5 a 7649.6,7649.6 0 0 1 -23.701171,14 c -1,0.7 -2.30039,0.10078 -12.90039,-6.19922 l -20.5,-12 -2.699219,-1.60156 v -40.89844 l 5.699219,-3.30078 A 2439,2439 0 0 1 38.09961,180.67528 c 0.365625,-0.28125 0.651645,-0.46742 1.101562,-0.46094 z M 146.5,237.67528 c 0.3,0 5.09883,2.7 10.79883,6 l 22.5,13 2.5,1.40039 v 41.40039 l -2.5,1.40039 A 755,755 0 0 0 160.5,312.27684 a 946,946 0 0 0 -6.80078,4 c -6.6,3.9 -6.90039,3.99844 -7.90039,3.39844 a 1502.5,1502.5 0 0 0 -30.5,-17.79883 A 18,18 0 0 1 111,299.17528 c -0.1,-0.3 -0.30078,-9.49961 -0.30078,-20.59961 v -20 l 2,-1.19922 a 256.4,256.4 0 0 1 13,-7.70117 12621,12621 0 0 1 20.80078,-12 z"></path>
  <metadata id="metadata5">
    <rdf:rdf>
      <cc:work rdf:about="">
        <cc:license rdf:resource="http://creativecommons.org/licenses/by-nc-nd/4.0/"></cc:license>
      </cc:work>
      <cc:license rdf:about="http://creativecommons.org/licenses/by-nc-nd/4.0/">
        <cc:permits rdf:resource="http://creativecommons.org/ns#Reproduction"></cc:permits>
        <cc:permits rdf:resource="http://creativecommons.org/ns#Distribution"></cc:permits>
        <cc:requires rdf:resource="http://creativecommons.org/ns#Notice"></cc:requires>
        <cc:requires rdf:resource="http://creativecommons.org/ns#Attribution"></cc:requires>
        <cc:prohibits rdf:resource="http://creativecommons.org/ns#CommercialUse"></cc:prohibits>
      </cc:license>
    </rdf:rdf>
  </metadata>
</svg></svg></g></g></svg></g><g id="dark-icon"><svg xmlns="http://www.w3.org/2000/svg" version="1.1" xmlns:xlink="http://www.w3.org/1999/xlink" width="1000" height="1000"><g><g transform="matrix(3.0804589699037614,0,0,3.0804589699037614,48.630605068371665,0)" style="filter: invert(100%)"><svg xmlns="http://www.w3.org/2000/svg" version="1.1" xmlns:xlink="http://www.w3.org/1999/xlink" width="293.05334" height="324.62695"><svg viewBox="0 0 293.05334 324.62695" version="1.1" id="svg2" sodipodi:docname="cipherswarm.svg" width="293.05334" height="324.62695" inkscape:version="1.4.2 (ebf0e940, 2025-05-08)" xmlns:inkscape="http://www.inkscape.org/namespaces/inkscape" xmlns:sodipodi="http://sodipodi.sourceforge.net/DTD/sodipodi-0.dtd" xmlns="http://www.w3.org/2000/svg" xmlns:svg="http://www.w3.org/2000/svg" xmlns:rdf="http://www.w3.org/1999/02/22-rdf-syntax-ns#" xmlns:cc="http://creativecommons.org/ns#">
  <defs id="defs2"></defs>
  <sodipodi:namedview id="namedview2" pagecolor="#181926" bordercolor="#000000" borderopacity="0.25" inkscape:showpageshadow="2" inkscape:pageopacity="0.0" inkscape:pagecheckerboard="true" inkscape:deskcolor="#d1d1d1" inkscape:zoom="2.08" inkscape:cx="146.39423" inkscape:cy="162.25962" inkscape:window-width="2560" inkscape:window-height="1308" inkscape:window-x="1282" inkscape:window-y="27" inkscape:window-maximized="0" inkscape:current-layer="svg2" inkscape:clip-to-page="false">
    <sodipodi:guide position="-2.4504035e-15,324.62695" orientation="0,293.05334" id="guide2" inkscape:locked="false"></sodipodi:guide>
    <sodipodi:guide position="293.05334,324.62695" orientation="324.62695,0" id="guide3" inkscape:locked="false"></sodipodi:guide>
    <sodipodi:guide position="293.05334,-1.7170691e-09" orientation="0,-293.05334" id="guide4" inkscape:locked="false"></sodipodi:guide>
    <sodipodi:guide position="-2.4504035e-15,-1.7170691e-09" orientation="-324.62695,0" id="guide5" inkscape:locked="false"></sodipodi:guide>
  </sodipodi:namedview>
  <path id="Foreground" style="display:inline;fill:#f5f5f5;fill-rule:evenodd" d="m 146.5293,0.00340382 c -0.63862,0.04324 -1.56836,0.503125 -3.63086,1.67187498 a 190,190 0 0 0 -8,4.800781 A 851.6,851.6 0 0 0 108,22.376451 l -1.30078,1 V 68.37645 l 3.09961,2 a 150,150 0 0 0 8.09961,4.79883 2108.6,2108.6 0 0 0 24.10156,14 l 2.29883,1.40039 v 13.80078 L 143,104.97606 l -3.30078,1.90039 -6.40039,3.59961 -9.40039,5.40039 -10.79883,6.19922 a 5610.3,5610.3 0 0 0 -17.400391,9.70117 c -0.4,0 -6.8,-3.60078 -13,-7.30078 l -2.40039,-1.40039 v -20 c 0,-18.6 7.8e-4,-20.09922 -0.69922,-20.69922 A 526.9,526.9 0 0 1 55.898439,68.67528 c -5,-3 -14.199611,-8.200001 -15.099611,-8.500001 -1,-0.2 -2.6,0.6 -10,5.000001 a 416.9,416.9 0 0 1 -13.90039,8.10156 745,745 0 0 1 -15.99999995,9.29883 c -0.5,0.3 -0.59961,4.70117 -0.59961,22.70117 0,26 -0.7,22.6 5.49999995,26 l 7.300782,4.09961 A 4892.3,4892.3 0 0 0 38.5,150.07567 c 0.7,0.5 1.698438,0 8.398439,-4 a 631.5,631.5 0 0 1 15.60156,-9.09961 l 8.19922,-4.90039 c 9.1,-5.4 6.99922,-5.39922 16.69922,0.30078 l 5.70117,3.29883 v 53.60156 l -2.09961,1.39844 a 140.2,140.2 0 0 1 -10.30078,6 l -1.5,0.80078 -9.69922,-5.59961 -23.201171,-13.20117 a 40.9,40.9 0 0 0 -6.699218,-3.39844 c -0.8,0 -4.800782,2.19844 -17.300782,9.39844 L 11.5,190.87645 c -7,4 -11.00078095,6.4 -11.30078095,7 C -7.809531e-4,198.07645 4.6902476e-8,208.37567 4.6902476e-8,220.57567 L 0.09961005,242.97606 l 7.59960895,4.40039 15.599609,9.09961 a 164,164 0 0 0 16.400391,9.19922 41,41 0 0 0 5.699219,-3 733.3,733.3 0 0 1 18.701171,-11 160.2,160.2 0 0 1 8.40039,-5 l 4.5,-2.59961 c 3.6,-2 3.29883,0.1 3.29883,-22.5 v -19.69922 l 6.90039,-4 c 6.2,-3.6 6.89922,-3.90039 7.69922,-3.40039 a 254.7,254.7 0 0 0 12.000001,6.80078 l 1.80078,1.09961 6.40039,3.69922 a 2595.3,2595.3 0 0 0 28.29883,16 c 0.9,0.5 1.00078,0.70117 0.80078,6.20117 l -0.0996,5.59961 -5.4004,3.19922 a 1387,1387 0 0 1 -29.09961,17.30078 l -2.90039,1.79883 0.0996,22.80078 0.0996,22.80078 5,3 c 7,4 23.7,13.69922 29.5,17.19922 5.8,3.4 5.00078,3.3 8.80078,1 l 3.90039,-2.30078 8.19922,-4.79883 a 1162.4,1162.4 0 0 1 23.5,-14 c 0.7,-0.7 0.90117,-45 0.20117,-46 l -3.20117,-2 a 346,346 0 0 1 -17,-10 2360.1,2360.1 0 0 1 -15.79883,-9.30078 l -1.30076,-0.59961 v -11.5 l 1.90039,-1 4.90039,-3 11.19922,-6.5 11.59961,-6.80078 c 16.7,-9.9 19.79961,-11.5 20.59961,-11 l 6,3.5 6.40039,3.70117 1.40039,0.90039 v 19.79883 c 0,18.4 -7.8e-4,20 0.69922,20.5 l 4.70117,3 16,9.09961 L 249,263.37645 c 4.4,2.7 3.6,2.70039 7.5,0.40039 a 3454.4,3454.4 0 0 1 29.79883,-17.20117 28,28 0 0 0 3.80078,-2.29883 c 0.7,-0.5 1.5,-1.00156 2,-1.10156 0.6,-0.3 0.6,-1.59883 0.5,-22.79883 l -0.0996,-22.5 -1.70117,-1 a 83,83 0 0 0 -7.19922,-4.30078 l -11.9004,-6.90039 -16.09961,-9.29883 -2.09961,-1.20117 -11.5,6.70117 a 12768,12768 0 0 0 -24.30078,14.09961 l -3.5,2 -1.90039,-1 c -1,-0.4 -4.19922,-2.3 -7.19922,-4 l -5.40039,-3.09961 -0.0996,-27.20117 -0.0996,-27.19922 5.09961,-3 c 10.2,-6.2 8.20039,-6 16.90039,-1 l 11.19922,6.40039 15,8.5 6.5,3.69922 a 517.2,517.2 0 0 0 19.30078,-11 L 291,128.77684 c 2.3,-1.5 2.1,-7.8e-4 2,-24.30078 l -0.10156,-21.40039 -2,-1.29883 -6,-3.60156 -8,-4.59961 c -4.5,-2.7 -5.39883,-3.29883 -10.79883,-6.29883 l -8,-4.70117 c -5.6,-3.300001 -5.30117,-3.299219 -8.70117,-1.199219 A 2252.6,2252.6 0 0 1 213.59961,82.07567 l -0.90039,0.59961 v 40.20117 l -2,1 -3.59961,2 a 84.2,84.2 0 0 1 -9.59961,5.40039 78,78 0 0 1 -7.30078,-3.90039 1118.8,1118.8 0 0 0 -22.30078,-12.40039 l -17.69922,-9.90039 -1.5,-0.79883 V 90.67528 L 149.79883,89.97606 153.5,87.77684 A 1466,1466 0 0 1 183.69922,70.37645 L 186.5,68.67528 186.5996,45.97606 c 0,-17.8 -3.9e-4,-22.799609 -0.40039,-23.099609 l -4.5,-2.800782 -11.19922,-6.5 c -11.2,-6.5000002 -22.30117,-13.00039018 -23.20117,-13.40039018 -0.25,-0.125 -0.47925,-0.191529 -0.76953,-0.171875 z m 0.0703,4.47265598 4.59961,2.699219 A 1304.7,1304.7 0 0 0 177.89844,22.97606 l 4.20117,2.599609 0.0996,20.400391 0.0996,20.40039 -1,0.59961 -4,2.19922 -11.79883,6.70117 -13.70117,7.79883 c -4.5,2.7 -5.7,3.20039 -6.5,2.40039 l -9.19921,-5.40039 -12.40039,-7.19922 -8.30078,-4.80078 -4.69922,-2.69922 V 25.675279 l 8.09961,-4.699219 A 15109.9,15109.9 0 0 1 142.89844,6.6752788 Z m 106,60.0000002 2.79883,1.5 a 6318,6318 0 0 1 32.40039,18.69922 l 0.90039,0.40039 v 20.30078 c 0,17.8 3.9e-4,20.20039 -0.59961,20.40039 l -8.30078,4.79883 a 918.1,918.1 0 0 1 -25.19922,14.5 c -0.4,0.2 -1.40078,-0.19883 -2.30078,-0.79883 l -10.29883,-6 -16.80078,-9.60156 -8,-4.79883 V 84.97606 l 6,-3.5 10,-5.69922 z M 40.277344,65.11083 c 0.602512,0.0251 1.105469,0.39609 2.121094,0.96484 v -0.09961 a 1153,1153 0 0 1 30.800781,17.90039 l 2.69922,1.5 v 19 c 0,17.8 7.8e-4,19.19883 -0.69922,19.79883 -0.7,0.6 -9.09922,5.7 -13.19922,8 a 3068,3068 0 0 0 -21.601561,12.5 l -1.298828,0.60156 -5.800782,-3.40039 a 126,126 0 0 0 -8,-4.59961 758.6,758.6 0 0 0 -19.90039,-11.30078 c -0.8,-0.3 -1.098828,-41.09961 -0.298828,-41.09961 0.3,0 2.7,-1.3 5.5,-3 l 11,-6.20117 a 158.1,158.1 0 0 0 8.798828,-5.19922 l 4.701172,-2.80078 c 3.20625,-1.9 4.29714,-2.60122 5.177734,-2.56445 z m 105.927736,43.08984 c 0.45587,-0.0165 0.9668,0.33242 2.29492,1.07617 h -0.10156 a 520.2,520.2 0 0 0 8.30078,4.5 5058,5058 0 0 0 31,17.19922 l 7.80078,4.40039 v 54.90039 l -7.5,4.39844 a 2578.4,2578.4 0 0 0 -35.5,20.70117 l -3.5,2 -2.70117,1.59961 -4.5,-2.59961 a 1409.3,1409.3 0 0 1 -22.5,-12.90039 l -8,-4.59961 c -9,-5.1 -13.399611,-7.7 -13.599611,-8 -0.4,-0.6 -0.4,-54.20117 0,-54.70117 0.1,-0.3 1.20078,-0.99961 2.30078,-1.59961 a 654.5,654.5 0 0 0 16.298831,-9.29883 l 7.80078,-4.5 12.40039,-7 a 189.3,189.3 0 0 1 8.09961,-4.70117 c 0.84375,-0.5625 1.20323,-0.86044 1.60547,-0.875 z m 0.86133,20.27734 a 16.6,16.6 0 0 0 -4.36719,0.49805 c -9,2 -13.29922,8.99922 -13.19922,21.69922 v 6 l -3,1.20117 a 33,33 0 0 0 -4,1.69922 l -1,0.5 v 14.5 c 0,8 0.19883,14.7 0.29883,15 0.1,0.3 5.40117,3.20117 11.70117,6.70117 l 12.19922,6.79883 c 0.7,0.5 1.49961,0.10117 6.59961,-2.79883 a 157.6,157.6 0 0 1 9,-5.10156 121,121 0 0 1 9.30078,-5.19922 c 0.4,-0.3 0.5,-3.79961 0.5,-15.09961 0,-16.6 0.19922,-15.49961 -3.30078,-16.59961 l -3.19922,-1.30078 -1,-0.5 v -6.19922 c 0,-7.2 -0.50117,-9.5 -2.20117,-13 a 16.6,16.6 0 0 0 -14.33203,-8.79883 z m -0.24805,5.18555 c 1.25625,0.0125 2.53125,0.21328 3.78125,0.61328 h 0.0996 c 5.8,2 7.7,5.59844 8,14.89844 v 6.90039 h -24 v -6.29883 c 0,-7.1 0.4,-8.7 2.5,-11.5 2.25,-3 5.85039,-4.65078 9.61914,-4.61328 z m -13.71875,27.01172 13.90039,0.10156 14,0.0996 2.69922,1.09962 2.80078,1.19922 0.0996,11.60156 0.0996,11.69922 -1.5,1 a 328,328 0 0 1 -17.90039,10 c -0.7,0.5 -14,-6.40078 -20,-10.30078 l -1,-0.69922 v -11.59961 c 0,-10.8 10e-4,-11.70039 0.70117,-11.90039 0.4,0 1.99844,-0.59922 3.39844,-1.19922 z m 12.93164,7.43359 c -0.5043,0.0365 -1.01875,0.15469 -1.53125,0.36719 -2.6,1 -3.50039,3.8 -1.90039,6 l 1.19922,1.59961 -0.69922,3.5 c -0.4,2 -0.7,3.80117 -0.5,4.20117 0.4,1.6 5.3,2.09922 7,0.69922 l 0.90039,-0.69922 -0.80078,-3 c -1,-4.2 -0.99922,-5.30156 0.30078,-6.60156 2.5375,-2.625 -0.43867,-6.32207 -3.96875,-6.06641 z m 107.4375,11.99805 c 0.55877,0.003 1.26172,0.48867 3.23047,1.66992 v 0.0996 a 641.5,641.5 0 0 0 12,7 l 11,6.19922 9,5.20117 0.19922,9.19922 c 0.1,5 0.20156,14.09922 0.10156,20.19922 v 11 l -2.30078,1.30079 -2.80078,1.59961 -4.39844,2.5 a 749,749 0 0 1 -25.60156,14.80078 c -0.3,0.2 -2.89883,-1.00117 -5.79883,-2.70117 l -11.20117,-6.5 a 2104.2,2104.2 0 0 0 -16.69922,-9.79883 l -2.90039,-1.70117 v -19.69922 l -0.19922,-19.5 3,-1.59961 a 520,520 0 0 0 15,-8.80078 l 16.79883,-9.69922 c 0.7875,-0.48125 1.13572,-0.77158 1.57031,-0.76953 z m -214.267578,0.10742 c 1.14979,0.0166 3.366016,1.29219 10.697267,5.46094 v 0.10156 a 7083,7083 0 0 0 25,14.39844 l 1,0.80078 v 38.90039 l -2.89844,1.59961 -8.5,5 a 7649.6,7649.6 0 0 1 -23.701171,14 c -1,0.7 -2.30039,0.10078 -12.90039,-6.19922 l -20.5,-12 -2.699219,-1.60156 v -40.89844 l 5.699219,-3.30078 A 2439,2439 0 0 1 38.09961,180.67528 c 0.365625,-0.28125 0.651645,-0.46742 1.101562,-0.46094 z M 146.5,237.67528 c 0.3,0 5.09883,2.7 10.79883,6 l 22.5,13 2.5,1.40039 v 41.40039 l -2.5,1.40039 A 755,755 0 0 0 160.5,312.27684 a 946,946 0 0 0 -6.80078,4 c -6.6,3.9 -6.90039,3.99844 -7.90039,3.39844 a 1502.5,1502.5 0 0 0 -30.5,-17.79883 A 18,18 0 0 1 111,299.17528 c -0.1,-0.3 -0.30078,-9.49961 -0.30078,-20.59961 v -20 l 2,-1.19922 a 256.4,256.4 0 0 1 13,-7.70117 12621,12621 0 0 1 20.80078,-12 z"></path>
  <metadata id="metadata5">
    <rdf:rdf>
      <cc:work rdf:about="">
        <cc:license rdf:resource="http://creativecommons.org/licenses/by-nc-nd/4.0/"></cc:license>
      </cc:work>
      <cc:license rdf:about="http://creativecommons.org/licenses/by-nc-nd/4.0/">
        <cc:permits rdf:resource="http://creativecommons.org/ns#Reproduction"></cc:permits>
        <cc:permits rdf:resource="http://creativecommons.org/ns#Distribution"></cc:permits>
        <cc:requires rdf:resource="http://creativecommons.org/ns#Notice"></cc:requires>
        <cc:requires rdf:resource="http://creativecommons.org/ns#Attribution"></cc:requires>
        <cc:prohibits rdf:resource="http://creativecommons.org/ns#CommercialUse"></cc:prohibits>
      </cc:license>
    </rdf:rdf>
  </metadata>
</svg></svg></g></g></svg></g></svg>