<?xml version="1.0" encoding="UTF-8"?>
<!--
  - SPDX-FileCopyrightText:  2024 UncleSp1d3r
  - SPDX-License-Identifier: MPL-2.0
  -->

<svg width="1200pt" height="1200pt" version="1.1" viewBox="0 0 1200 1200" xmlns="http://www.w3.org/2000/svg">
  <path d="m695.76 661.34 444.54-420.44v-181.2h-1080.6v181.2l444.54 420.44v478.96l191.52-116.27zm-636.06 167.73c0-24.762 20.074-44.836 44.836-44.836 19.227 0 35.613 12.086 41.988 29.086h326.19v31.512h-326.17c-6.375 16.988-22.773 29.086-41.988 29.086-24.777-0.011718-44.852-20.086-44.852-44.848zm413.01 138.45h-109.11l-101.45 108.07c2.9609 5.9883 4.6367 12.727 4.6367 19.863 0 24.762-20.074 44.836-44.836 44.836s-44.836-20.074-44.836-44.836 20.074-44.836 44.836-44.836c6.125 0 11.961 1.2266 17.289 3.4492l105.4-112.29c2.8867-3.5391 7.2891-5.7891 12.199-5.7891h115.89l0.003906 31.527zm254.58-31.512h115.89c4.9258 0 9.3125 2.25 12.199 5.7891l105.4 112.29c5.3242-2.2266 11.164-3.4492 17.289-3.4492 24.762 0 44.836 20.074 44.836 44.836 0 24.762-20.074 44.836-44.836 44.836s-44.836-20.074-44.836-44.836c0-7.1367 1.6641-13.875 4.6367-19.863l-101.45-108.07h-109.11v-31.527zm0-245.4h109.11l101.45-108.07c-2.9609-5.9883-4.6367-12.727-4.6367-19.863 0-24.762 20.074-44.836 44.836-44.836s44.836 20.074 44.836 44.836c0 24.762-20.062 44.836-44.824 44.836-6.125 0-11.961-1.2266-17.289-3.4492l-105.4 112.29c-2.8867 3.5391-7.2891 5.7891-12.199 5.7891h-115.89zm326.17 154.21h-326.17v-31.512h326.19c6.375-16.988 22.773-29.086 41.988-29.086 24.762 0 44.836 20.074 44.836 44.836s-20.074 44.836-44.836 44.836c-19.227 0.011719-35.629-12.074-42.004-29.074zm-580.75-122.69h-115.89c-4.9258 0-9.3125-2.25-12.199-5.7891l-105.4-112.29c-5.3242 2.2266-11.164 3.4492-17.289 3.4492-24.762 0-44.836-20.074-44.836-44.836 0-24.762 20.074-44.836 44.836-44.836s44.836 20.074 44.836 44.836c0 7.1367-1.6758 13.875-4.6367 19.863l101.45 108.07h109.11v31.527zm127.29-364.5c15.699 0 28.414 12.727 28.414 28.414 0 9.8633-5.0234 18.551-12.664 23.648v23.137c0 8.6992-7.0508 15.762-15.762 15.762-8.6992 0-15.762-7.0508-15.762-15.762v-23.137c-7.6367-5.1016-12.664-13.789-12.664-23.648 0.011719-15.688 12.738-28.414 28.438-28.414zm-82.824-64.5v-36.449c0-45.574 37.238-82.812 82.812-82.812 45.586 0 82.824 37.238 82.824 82.812v36.449h16.574c8.6992 0 15.762 7.0508 15.762 15.762v88.875c0 63.363-51.789 115.15-115.15 115.15-63.363 0-115.15-51.789-115.15-115.15v-88.875c0-8.6992 7.0508-15.762 15.762-15.762zm134.12 0h-102.6v-36.449c0-28.188 23.113-51.301 51.301-51.301s51.301 23.113 51.301 51.301z"
        fill-rule="evenodd"/>
</svg>
